<?xml version="1.0" encoding="UTF-8"?>
<!-- Generator: Adobe Illustrator 26.0.0, SVG Export Plug-In . SVG Version: 6.00 Build 0)  -->
<svg version="1.1" id="Ebene_1" xmlns="http://www.w3.org/2000/svg" xmlns:xlink="http://www.w3.org/1999/xlink" x="0px" y="0px" viewBox="0 0 188.4 36" style="enable-background:new 0 0 188.4 36;" xml:space="preserve">
<style type="text/css">
	.st0{fill:#E3F866;}
	.st1{fill:#FFFFFF;}
	.st2{fill:#303640;}
</style>
<g id="b_00000013186042919456775920000003839527799648309642_">
	<g id="c_00000047044642389263782900000012973560888857115015_">
		<g>
			<path class="st1" d="M112.3,8.4c1.5,0,2.9-0.8,3.5-2L115,5.8c-0.5,0.9-1.5,1.5-2.7,1.5c-0.9,0-1.6-0.3-2.2-0.9     c-0.6-0.6-0.9-1.4-0.9-2.2s0.3-1.6,0.9-2.2c0.6-0.6,1.3-0.9,2.2-0.9c1.2,0,2.2,0.6,2.6,1.5l0.8-0.5c-0.6-1.3-1.9-2.1-3.4-2.1     c-1.2,0-2.2,0.4-3,1.2c-0.8,0.8-1.2,1.8-1.2,2.9s0.4,2.1,1.2,2.9C110.2,8,111.2,8.4,112.3,8.4L112.3,8.4z"/>
			<path class="st1" d="M121.7,8.4c1.1,0,2.1-0.4,2.9-1.2c0.8-0.8,1.2-1.8,1.2-2.9s-0.4-2.1-1.2-2.9c-0.8-0.8-1.8-1.2-2.9-1.2     c-1.1,0-2.1,0.4-2.9,1.2c-0.8,0.8-1.2,1.8-1.2,2.9s0.4,2.1,1.2,2.9C119.5,8,120.5,8.4,121.7,8.4z M119.5,2.1     c0.6-0.6,1.3-0.9,2.2-0.9c0.9,0,1.6,0.3,2.2,0.9c0.6,0.6,0.9,1.3,0.9,2.2s-0.3,1.6-0.9,2.2c-0.6,0.6-1.3,0.9-2.2,0.9     c-0.9,0-1.6-0.3-2.2-0.9c-0.6-0.6-0.9-1.4-0.9-2.2S118.9,2.7,119.5,2.1z"/>
			<path class="st1" d="M129.3,3.8c0-1.8,1-2.7,2.3-2.7c1.1,0,1.8,0.8,1.8,2.1v4.9h1V3.8c0-1.8,0.9-2.7,2.2-2.7     c1.1,0,1.9,0.8,1.9,2.1v4.9h1V3.3c0-1.9-1.2-3.1-2.9-3.1c-1.1,0-2,0.5-2.5,1.4c-0.5-1-1.3-1.4-2.4-1.4c-1,0-1.8,0.4-2.4,1.3V0.3     h-1v7.9h1V3.8z"/>
			<path class="st1" d="M147.5,3.3v4.9h1V3.8c0-1.8,0.9-2.7,2.2-2.7c1.1,0,1.9,0.8,1.9,2.1v4.9h1V3.3c0-1.9-1.2-3.1-2.9-3.1     c-1.1,0-2,0.5-2.5,1.4c-0.5-1-1.3-1.4-2.4-1.4c-1,0-1.8,0.4-2.4,1.3V0.3h-1v7.9h1V3.8c0-1.8,1-2.7,2.3-2.7     C146.8,1.1,147.5,1.9,147.5,3.3z"/>
			<path class="st1" d="M163.6,6.6L162.7,6c-0.4,0.8-1.3,1.3-2.5,1.3c-1.7,0-2.9-1-3.1-2.6h6.9c0-0.2,0-0.4,0-0.5     c0-1.1-0.4-2.1-1.1-2.9c-0.7-0.8-1.6-1.2-2.8-1.2c-1.2,0-2.2,0.4-3,1.2c-0.8,0.8-1.1,1.8-1.1,2.9c0,1.2,0.4,2.2,1.2,3     c0.8,0.8,1.8,1.2,3,1.2C161.6,8.4,162.9,7.7,163.6,6.6L163.6,6.6z M160,1.1c0.7,0,1.3,0.2,1.9,0.7c0.5,0.5,0.8,1.1,1,1.9H157     C157.2,2.2,158.4,1.1,160,1.1z"/>
			<path class="st1" d="M167.4,1.6V0.3h-1v7.9h1V3.8c0-1.8,1.1-2.6,2.5-2.6v-1C168.7,0.2,167.8,0.7,167.4,1.6z"/>
			<path class="st1" d="M175.2,7.4c-0.9,0-1.6-0.3-2.2-0.9c-0.6-0.6-0.9-1.4-0.9-2.2s0.3-1.6,0.9-2.2c0.6-0.6,1.3-0.9,2.2-0.9     c1.2,0,2.2,0.6,2.6,1.5l0.8-0.5c-0.6-1.3-1.9-2.1-3.4-2.1c-1.2,0-2.2,0.4-3,1.2c-0.8,0.8-1.2,1.8-1.2,2.9s0.4,2.1,1.2,2.9     c0.8,0.8,1.8,1.2,3,1.2c1.5,0,2.9-0.8,3.5-2l-0.9-0.5C177.3,6.8,176.4,7.4,175.2,7.4L175.2,7.4z"/>
			<path class="st1" d="M187.3,1.4c-0.7-0.8-1.6-1.2-2.8-1.2c-1.2,0-2.2,0.4-3,1.2c-0.8,0.8-1.1,1.8-1.1,2.9c0,1.2,0.4,2.2,1.2,3     c0.8,0.8,1.8,1.2,3,1.2c1.5,0,2.8-0.7,3.5-1.8L187.1,6c-0.4,0.8-1.3,1.3-2.5,1.3c-1.7,0-2.9-1-3.1-2.6h6.9c0-0.2,0-0.4,0-0.5     C188.4,3.2,188,2.2,187.3,1.4L187.3,1.4z M181.4,3.8c0.2-1.6,1.4-2.6,3-2.6c0.7,0,1.3,0.2,1.9,0.7s0.8,1.1,1,1.9     C187.3,3.8,181.4,3.8,181.4,3.8z"/>
			<path class="st1" d="M115.4,17.5c-0.7-1.1-1.8-1.7-3.2-1.7c-1.1,0-2.1,0.4-2.9,1.2c-0.8,0.8-1.2,1.8-1.2,2.9     c0,1.1,0.4,2.1,1.2,2.9c0.8,0.8,1.8,1.2,2.9,1.2c1.4,0,2.5-0.6,3.2-1.7v1.5h1v-7.9h-1V17.5L115.4,17.5z M114.5,22.1     c-0.6,0.6-1.3,0.9-2.2,0.9c-0.9,0-1.6-0.3-2.2-0.9c-0.6-0.6-0.9-1.4-0.9-2.2c0-0.9,0.3-1.6,0.9-2.2c0.6-0.6,1.3-0.9,2.2-0.9     c0.9,0,1.6,0.3,2.2,0.9c0.6,0.6,0.9,1.3,0.9,2.2C115.4,20.7,115.1,21.5,114.5,22.1z"/>
			<path class="st1" d="M125.6,17.5c-0.7-1.1-1.8-1.7-3.2-1.7c-1.1,0-2.1,0.4-2.9,1.2c-0.8,0.8-1.2,1.8-1.2,2.9     c0,1.1,0.4,2.1,1.2,2.9c0.8,0.8,1.8,1.2,2.9,1.2c1.4,0,2.5-0.6,3.2-1.7v1.5h1v-11h-1V17.5L125.6,17.5z M124.7,22.1     c-0.6,0.6-1.3,0.9-2.2,0.9c-0.9,0-1.6-0.3-2.2-0.9c-0.6-0.6-0.9-1.4-0.9-2.2c0-0.9,0.3-1.6,0.9-2.2c0.6-0.6,1.3-0.9,2.2-0.9     c0.9,0,1.6,0.3,2.2,0.9c0.6,0.6,0.9,1.3,0.9,2.2C125.6,20.7,125.3,21.5,124.7,22.1z"/>
			<polygon class="st1" points="131.9,22.7 129.1,15.9 128,15.9 131.3,23.8 132.5,23.8 135.7,15.9 134.6,15.9    "/>
			<path class="st1" d="M140.5,15.7c-1.2,0-2.2,0.4-3,1.2c-0.8,0.8-1.1,1.8-1.1,2.9c0,1.2,0.4,2.2,1.2,3c0.8,0.8,1.8,1.2,3,1.2     c1.5,0,2.8-0.7,3.5-1.8l-0.9-0.5c-0.4,0.8-1.3,1.3-2.5,1.3c-1.7,0-2.9-1-3.1-2.6h6.9c0-0.2,0-0.4,0-0.5c0-1.1-0.4-2.1-1.1-2.9     C142.6,16.1,141.6,15.7,140.5,15.7L140.5,15.7z M137.4,19.4c0.2-1.6,1.4-2.6,3-2.6c0.7,0,1.3,0.2,1.9,0.7c0.5,0.5,0.8,1.1,1,1.9     H137.4z"/>
			<path class="st1" d="M147.2,17.2v-1.3h-1v7.9h1v-4.4c0-1.8,1.1-2.6,2.5-2.6v-1C148.5,15.8,147.7,16.3,147.2,17.2z"/>
			<path class="st1" d="M153.3,13.7l-1,0.3v1.9h-1.6v1h1.6v4.8c0,1.8,1.1,2.4,3.3,2.1v-0.9c-1.5,0.1-2.3,0.2-2.3-1.2v-4.8h2.3v-1     h-2.3L153.3,13.7L153.3,13.7z"/>
			<path class="st1" d="M157.5,13c-0.3,0.3-0.3,0.8,0,1.1s0.8,0.3,1.1,0c0.3-0.3,0.3-0.8,0-1.1C158.2,12.7,157.8,12.7,157.5,13z"/>
			<rect x="157.5" y="15.9" class="st1" width="1" height="7.9"/>
			<path class="st1" d="M163.3,19.3c-0.9-0.2-1.6-0.6-1.6-1.3c0-0.8,0.8-1.2,1.6-1.2c1,0,1.6,0.4,1.9,1.1l0.9-0.5     c-0.5-1-1.5-1.6-2.7-1.6c-0.8,0-1.4,0.2-1.9,0.6c-0.5,0.4-0.8,1-0.8,1.6c0,1.7,1.6,2.1,3,2.4c0.9,0.2,1.6,0.6,1.6,1.3     c0,0.9-0.8,1.3-1.8,1.3c-1.1,0-1.9-0.5-2.2-1.3l-0.9,0.5c0.4,1.1,1.5,1.8,3,1.8c0.8,0,1.5-0.2,2-0.6c0.5-0.4,0.8-1,0.8-1.6     C166.3,20,164.6,19.6,163.3,19.3L163.3,19.3z"/>
			<rect x="168.1" y="15.9" class="st1" width="1" height="7.9"/>
			<path class="st1" d="M168.1,13c-0.3,0.3-0.3,0.8,0,1.1c0.3,0.3,0.8,0.3,1.1,0s0.3-0.8,0-1.1S168.4,12.7,168.1,13z"/>
			<path class="st1" d="M175.1,15.7c-1.2,0-2.1,0.5-2.6,1.4v-1.2h-1v7.9h1v-4.1c0-2,1-2.9,2.5-2.9c1.4,0,2.1,0.8,2.1,2.2v4.8h1V19     C178.2,17,177,15.7,175.1,15.7L175.1,15.7z"/>
			<path class="st1" d="M187.1,17.5c-0.7-1.1-1.8-1.7-3.2-1.7c-1.1,0-2.1,0.4-2.9,1.2c-0.8,0.8-1.2,1.8-1.2,2.9     c0,1.1,0.4,2.1,1.2,2.9c0.8,0.8,1.8,1.2,2.9,1.2c1.4,0,2.5-0.6,3.2-1.7v1.2c0,1.6-1.1,2.6-2.9,2.6c-1.4,0-2.3-0.5-2.8-1.4     l-0.9,0.5c0.6,1.3,1.9,1.9,3.7,1.9c1.1,0,2-0.3,2.8-1c0.8-0.6,1.2-1.5,1.2-2.7v-7.5h-1L187.1,17.5L187.1,17.5z M186.3,22.1     c-0.6,0.6-1.3,0.9-2.2,0.9c-0.9,0-1.6-0.3-2.2-0.9c-0.6-0.6-0.9-1.4-0.9-2.2c0-0.9,0.3-1.6,0.9-2.2c0.6-0.6,1.3-0.9,2.2-0.9     s1.6,0.3,2.2,0.9c0.6,0.6,0.9,1.3,0.9,2.2C187.1,20.7,186.8,21.5,186.3,22.1z"/>
			<path class="st1" d="M62,30.9c-3.9,0-7.1-3.2-7.1-7.1h-5.1C49.8,30.5,55.3,36,62,36s12.2-5.5,12.2-12.2h-5.1     C69.2,27.7,66,30.9,62,30.9L62,30.9z"/>
			<path class="st1" d="M41.9,0.3h-5.1v23.5h5.1V12.1c0-3.9,3.1-7,7-7V0c-2.6,0-5,0.8-7,2.3C41.9,2.3,41.9,0.3,41.9,0.3z"/>
			<path class="st1" d="M74,5.1V0H62c-6.7,0-12.2,5.5-12.2,12.2S55.3,24.4,62,24.4s12.2-5.5,12.2-12.2c0-2.7-0.9-5.1-2.3-7.1H74z      M62,19.3c-3.9,0-7.1-3.2-7.1-7.1s3.2-7.1,7.1-7.1s7.1,3.2,7.1,7.1S66,19.3,62,19.3z"/>
			<path class="st1" d="M23.3,0c-2.4,0-4.6,1-6.2,2.6C15.5,1,13.3,0,10.9,0S6.2,1,4.7,2.6C3.4,1.3,1.8,0.5,0,0.1v5.3     C1.2,6,2.1,7.3,2.1,8.7v15.1h5.1V8.7c0-2,1.6-3.7,3.7-3.7s3.7,1.6,3.7,3.7v15.1h5.1V8.7l0,0c0-2,1.6-3.7,3.7-3.7s3.7,1.6,3.7,3.7     v15.1H32V8.7C32,3.9,28.1,0,23.3,0L23.3,0z"/>
			<path class="st1" d="M90.1,0c-6.7,0-12.2,5.5-12.2,12.2s5.5,12.2,12.2,12.2c4.6,0,8.6-2.5,10.7-6.3l-4.7-2.1     c-1.3,2-3.5,3.3-6,3.3c-3.3,0-6.2-2.3-6.9-5.4h19c0.1-0.6,0.1-1.1,0.1-1.7C102.3,5.5,96.8,0,90.1,0z M83.4,9.8     c1-2.7,3.6-4.7,6.7-4.7s5.7,2,6.7,4.7H83.4L83.4,9.8z"/>
		</g>
	</g>
</g>
</svg>